<svg width="1440" height="80" viewBox="0 0 1440 80" fill="none" xmlns="http://www.w3.org/2000/svg">
<path d="M0 1H1440M1440 79H0" stroke="#FFF7F7"/>
<path d="M51.24 27.6H33.64V50H41.96V44.752H51.24C56.328 44.752 59.816 41.168 59.816 36.176C59.816 31.184 56.328 27.6 51.24 27.6ZM49.64 37.712H41.96V34.64H49.64C50.472 34.64 51.496 34.64 51.496 36.176C51.496 37.712 50.472 37.712 49.64 37.712ZM75.901 30.48C72.765 30.48 70.141 31.472 68.445 34V30.8H60.765V50H68.445V39.632C70.653 37.2 73.629 36.88 76.349 36.88C77.757 36.88 79.197 37.072 80.989 37.52V31.12C79.709 30.8 78.141 30.48 75.901 30.48ZM94.056 44.24C91.944 44.24 89.8 43.728 89.16 41.68H107.368C107.368 33.296 102.28 30.48 94.376 30.48C86.536 30.48 81.32 33.296 81.32 40.4C81.32 47.504 86.536 50.32 94.056 50.32C101.96 50.32 106.088 47.888 107.048 42.8H99.528C97.96 44.048 96.84 44.24 94.056 44.24ZM94.344 35.92C96.392 35.92 98.312 36.112 99.176 37.84H89.512C90.376 36.112 92.296 35.92 94.344 35.92ZM141.224 30.48C136.552 30.48 133.608 32.08 131.592 34C130.088 31.184 127.048 30.48 124.648 30.48C119.976 30.48 117.704 32.4 116.008 34V30.8H108.328V50H116.008V39.632C117.64 38.032 119.272 37.2 121.224 37.2C124.04 37.2 124.904 38.608 124.904 41.904V50H132.584V39.632C134.216 38.032 135.848 37.2 137.8 37.2C140.616 37.2 141.479 38.608 141.479 41.904V50H149.16V38.448C149.16 31.824 144.583 30.48 141.224 30.48ZM150.453 24.4V29.52H158.133V24.4H150.453ZM150.453 30.8V50H158.133V30.8H150.453ZM177.917 30.8V41.168C176.413 42.608 174.013 43.6 171.741 43.6C168.285 43.6 167.101 42.192 167.101 38.896V30.8H159.421V42.032C159.421 48.976 164.317 50.32 168.637 50.32C172.669 50.32 175.613 49.04 177.917 47.44V50H185.597V30.8H177.917ZM219.786 30.48C215.114 30.48 212.17 32.08 210.154 34C208.65 31.184 205.61 30.48 203.21 30.48C198.538 30.48 196.266 32.4 194.57 34V30.8H186.89V50H194.57V39.632C196.202 38.032 197.834 37.2 199.786 37.2C202.602 37.2 203.466 38.608 203.466 41.904V50H211.146V39.632C212.778 38.032 214.41 37.2 216.362 37.2C219.178 37.2 220.042 38.608 220.042 41.904V50H227.722V38.448C227.722 31.824 223.146 30.48 219.786 30.48ZM241.508 38.768C241.508 46.576 245.732 50.32 255.588 50.32C264.58 50.32 269.22 47.152 269.572 40.048H261.06C260.74 42.192 259.108 43.28 255.588 43.28C250.692 43.28 249.828 41.168 249.828 38.768C249.828 36.4 250.66 34.32 255.588 34.32C259.108 34.32 260.74 35.376 261.06 37.488H269.572C269.22 30.416 264.548 27.28 255.588 27.28C245.732 27.28 241.508 30.992 241.508 38.768ZM283.282 50.32C291.442 50.32 296.338 47.504 296.338 40.4C296.338 33.296 291.442 30.48 283.282 30.48C275.122 30.48 270.226 33.296 270.226 40.4C270.226 47.504 275.122 50.32 283.282 50.32ZM283.282 43.92C279.858 43.92 277.906 43.216 277.906 40.4C277.906 37.584 279.858 36.88 283.282 36.88C286.706 36.88 288.658 37.584 288.658 40.4C288.658 43.216 286.706 43.92 283.282 43.92ZM297.296 24.4V50H304.976V24.4H297.296ZM306.265 24.4V50H313.945V24.4H306.265ZM327.65 44.24C325.538 44.24 323.394 43.728 322.754 41.68H340.962C340.962 33.296 335.874 30.48 327.97 30.48C320.13 30.48 314.914 33.296 314.914 40.4C314.914 47.504 320.13 50.32 327.65 50.32C335.554 50.32 339.682 47.888 340.642 42.8H333.122C331.554 44.048 330.434 44.24 327.65 44.24ZM327.938 35.92C329.986 35.92 331.906 36.112 332.77 37.84H323.106C323.97 36.112 325.89 35.92 327.938 35.92ZM341.601 40.4C341.601 47.504 346.497 50.32 354.657 50.32C362.241 50.32 367.009 47.888 367.649 41.84H359.809C359.201 43.472 357.409 43.92 354.657 43.92C351.233 43.92 349.281 43.216 349.281 40.4C349.281 37.584 351.233 36.88 354.657 36.88C357.409 36.88 359.201 37.328 359.809 38.96H367.649C367.009 32.912 362.241 30.48 354.657 30.48C346.497 30.48 341.601 33.296 341.601 40.4ZM387.056 37.2V30.8H379.216V25.68L371.536 27.6V30.8H367.664V37.2H371.536V44.336C371.536 48.496 374.48 50.32 380.432 50.32C382.96 50.32 385.232 50.16 387.056 49.84V43.6C384.848 43.92 383.888 43.92 382.16 43.92C379.92 43.92 379.216 42.992 379.216 41.168V37.2H387.056ZM388.015 24.4V29.52H395.695V24.4H388.015ZM388.015 30.8V50H395.695V30.8H388.015ZM409.72 50.32C417.88 50.32 422.776 47.504 422.776 40.4C422.776 33.296 417.88 30.48 409.72 30.48C401.56 30.48 396.664 33.296 396.664 40.4C396.664 47.504 401.56 50.32 409.72 50.32ZM409.72 43.92C406.296 43.92 404.344 43.216 404.344 40.4C404.344 37.584 406.296 36.88 409.72 36.88C413.144 36.88 415.096 37.584 415.096 40.4C415.096 43.216 413.144 43.92 409.72 43.92ZM440.694 30.48C436.662 30.48 433.718 31.76 431.414 33.36V30.8H423.734V50H431.414V39.632C432.918 38.192 435.318 37.2 437.59 37.2C441.046 37.2 442.23 38.608 442.23 41.904V50H449.91V38.768C449.91 31.824 445.014 30.48 440.694 30.48Z" fill="white"/>
<path d="M463.695 38.768C463.695 46.576 467.919 50.32 477.775 50.32C486.767 50.32 491.407 47.152 491.759 40.048H483.247C482.927 42.192 481.295 43.28 477.775 43.28C472.879 43.28 472.015 41.168 472.015 38.768C472.015 36.4 472.847 34.32 477.775 34.32C481.295 34.32 482.927 35.376 483.247 37.488H491.759C491.407 30.416 486.735 27.28 477.775 27.28C467.919 27.28 463.695 30.992 463.695 38.768ZM505.47 50.32C513.63 50.32 518.526 47.504 518.526 40.4C518.526 33.296 513.63 30.48 505.47 30.48C497.31 30.48 492.414 33.296 492.414 40.4C492.414 47.504 497.31 50.32 505.47 50.32ZM505.47 43.92C502.046 43.92 500.094 43.216 500.094 40.4C500.094 37.584 502.046 36.88 505.47 36.88C508.894 36.88 510.846 37.584 510.846 40.4C510.846 43.216 508.894 43.92 505.47 43.92ZM552.38 30.48C547.708 30.48 544.764 32.08 542.748 34C541.244 31.184 538.204 30.48 535.804 30.48C531.132 30.48 528.86 32.4 527.164 34V30.8H519.484V50H527.164V39.632C528.796 38.032 530.428 37.2 532.38 37.2C535.196 37.2 536.06 38.608 536.06 41.904V50H543.74V39.632C545.372 38.032 547.004 37.2 548.956 37.2C551.772 37.2 552.636 38.608 552.636 41.904V50H560.316V38.448C560.316 31.824 555.74 30.48 552.38 30.48ZM561.609 24.4V29.52H569.289V24.4H561.609ZM561.609 30.8V50H569.289V30.8H561.609ZM587.538 30.48C583.506 30.48 580.562 31.76 578.258 33.36V30.8H570.578V50H578.258V39.632C579.762 38.192 582.162 37.2 584.434 37.2C587.89 37.2 589.074 38.608 589.074 41.904V50H596.754V38.768C596.754 31.824 591.858 30.48 587.538 30.48ZM616.158 30.8V33.68C614.494 31.664 611.774 30.48 607.902 30.48C601.982 30.48 597.726 33.296 597.726 39.76C597.726 46.224 601.982 49.04 607.902 49.04C611.774 49.04 614.494 47.856 616.158 45.84C616.094 50.704 614.078 51.6 610.334 51.6C606.174 51.6 601.95 50.672 599.742 50.256V56.496C601.566 56.976 606.27 58 611.742 58C618.334 58 623.838 55.216 623.838 47.536V30.8H616.158ZM610.782 42.64C606.718 42.64 605.406 41.936 605.406 39.76C605.406 37.584 606.718 36.88 610.782 36.88C614.846 36.88 616.158 37.584 616.158 39.76C616.158 41.936 614.846 42.64 610.782 42.64ZM637.601 42.096C637.601 48.752 642.721 50.32 651.905 50.32C661.089 50.32 666.209 48.752 666.209 42.576C666.209 36.72 660.737 36.112 651.905 35.76C647.041 35.568 646.241 35.6 646.241 34.736C646.241 33.872 647.041 33.68 650.945 33.68C655.009 33.68 656.929 33.936 656.929 35.12H665.249C665.249 29.392 660.321 27.28 651.585 27.28C642.753 27.28 637.921 29.392 637.921 34.32C637.921 39.536 641.793 41.2 651.905 41.52C657.153 41.68 657.889 41.808 657.889 42.768C657.889 43.6 657.153 43.92 652.225 43.92C646.945 43.92 645.921 43.184 645.921 42.096H637.601ZM679.907 50.32C688.067 50.32 692.963 47.504 692.963 40.4C692.963 33.296 688.067 30.48 679.907 30.48C671.747 30.48 666.851 33.296 666.851 40.4C666.851 47.504 671.747 50.32 679.907 50.32ZM679.907 43.92C676.483 43.92 674.531 43.216 674.531 40.4C674.531 37.584 676.483 36.88 679.907 36.88C683.331 36.88 685.283 37.584 685.283 40.4C685.283 43.216 683.331 43.92 679.907 43.92ZM706.657 50.32C714.817 50.32 719.713 47.504 719.713 40.4C719.713 33.296 714.817 30.48 706.657 30.48C698.497 30.48 693.601 33.296 693.601 40.4C693.601 47.504 698.497 50.32 706.657 50.32ZM706.657 43.92C703.233 43.92 701.281 43.216 701.281 40.4C701.281 37.584 703.233 36.88 706.657 36.88C710.081 36.88 712.033 37.584 712.033 40.4C712.033 43.216 710.081 43.92 706.657 43.92ZM737.631 30.48C733.599 30.48 730.655 31.76 728.351 33.36V30.8H720.671V50H728.351V39.632C729.855 38.192 732.255 37.2 734.527 37.2C737.983 37.2 739.167 38.608 739.167 41.904V50H746.847V38.768C746.847 31.824 741.951 30.48 737.631 30.48Z" fill="#4AED52"/>
<path d="M815.24 27.6H797.64V50H805.96V44.752H815.24C820.328 44.752 823.816 41.168 823.816 36.176C823.816 31.184 820.328 27.6 815.24 27.6ZM813.64 37.712H805.96V34.64H813.64C814.472 34.64 815.496 34.64 815.496 36.176C815.496 37.712 814.472 37.712 813.64 37.712ZM839.901 30.48C836.765 30.48 834.141 31.472 832.445 34V30.8H824.765V50H832.445V39.632C834.653 37.2 837.629 36.88 840.349 36.88C841.757 36.88 843.197 37.072 844.989 37.52V31.12C843.709 30.8 842.141 30.48 839.901 30.48ZM858.056 44.24C855.944 44.24 853.8 43.728 853.16 41.68H871.368C871.368 33.296 866.28 30.48 858.376 30.48C850.536 30.48 845.32 33.296 845.32 40.4C845.32 47.504 850.536 50.32 858.056 50.32C865.96 50.32 870.088 47.888 871.048 42.8H863.528C861.96 44.048 860.84 44.24 858.056 44.24ZM858.344 35.92C860.392 35.92 862.312 36.112 863.176 37.84H853.512C854.376 36.112 856.296 35.92 858.344 35.92ZM905.224 30.48C900.552 30.48 897.608 32.08 895.592 34C894.088 31.184 891.048 30.48 888.648 30.48C883.976 30.48 881.704 32.4 880.008 34V30.8H872.328V50H880.008V39.632C881.64 38.032 883.272 37.2 885.224 37.2C888.04 37.2 888.904 38.608 888.904 41.904V50H896.584V39.632C898.216 38.032 899.848 37.2 901.8 37.2C904.616 37.2 905.479 38.608 905.479 41.904V50H913.16V38.448C913.16 31.824 908.583 30.48 905.224 30.48ZM914.453 24.4V29.52H922.133V24.4H914.453ZM914.453 30.8V50H922.133V30.8H914.453ZM941.917 30.8V41.168C940.413 42.608 938.013 43.6 935.741 43.6C932.285 43.6 931.101 42.192 931.101 38.896V30.8H923.421V42.032C923.421 48.976 928.317 50.32 932.637 50.32C936.669 50.32 939.613 49.04 941.917 47.44V50H949.597V30.8H941.917ZM983.786 30.48C979.114 30.48 976.17 32.08 974.154 34C972.65 31.184 969.61 30.48 967.21 30.48C962.538 30.48 960.266 32.4 958.57 34V30.8H950.89V50H958.57V39.632C960.202 38.032 961.834 37.2 963.786 37.2C966.602 37.2 967.466 38.608 967.466 41.904V50H975.146V39.632C976.778 38.032 978.41 37.2 980.362 37.2C983.178 37.2 984.042 38.608 984.042 41.904V50H991.722V38.448C991.722 31.824 987.146 30.48 983.786 30.48ZM1005.51 38.768C1005.51 46.576 1009.73 50.32 1019.59 50.32C1028.58 50.32 1033.22 47.152 1033.57 40.048H1025.06C1024.74 42.192 1023.11 43.28 1019.59 43.28C1014.69 43.28 1013.83 41.168 1013.83 38.768C1013.83 36.4 1014.66 34.32 1019.59 34.32C1023.11 34.32 1024.74 35.376 1025.06 37.488H1033.57C1033.22 30.416 1028.55 27.28 1019.59 27.28C1009.73 27.28 1005.51 30.992 1005.51 38.768ZM1047.28 50.32C1055.44 50.32 1060.34 47.504 1060.34 40.4C1060.34 33.296 1055.44 30.48 1047.28 30.48C1039.12 30.48 1034.23 33.296 1034.23 40.4C1034.23 47.504 1039.12 50.32 1047.28 50.32ZM1047.28 43.92C1043.86 43.92 1041.91 43.216 1041.91 40.4C1041.91 37.584 1043.86 36.88 1047.28 36.88C1050.71 36.88 1052.66 37.584 1052.66 40.4C1052.66 43.216 1050.71 43.92 1047.28 43.92ZM1061.3 24.4V50H1068.98V24.4H1061.3ZM1070.27 24.4V50H1077.95V24.4H1070.27ZM1091.65 44.24C1089.54 44.24 1087.39 43.728 1086.75 41.68H1104.96C1104.96 33.296 1099.87 30.48 1091.97 30.48C1084.13 30.48 1078.91 33.296 1078.91 40.4C1078.91 47.504 1084.13 50.32 1091.65 50.32C1099.55 50.32 1103.68 47.888 1104.64 42.8H1097.12C1095.55 44.048 1094.43 44.24 1091.65 44.24ZM1091.94 35.92C1093.99 35.92 1095.91 36.112 1096.77 37.84H1087.11C1087.97 36.112 1089.89 35.92 1091.94 35.92ZM1105.6 40.4C1105.6 47.504 1110.5 50.32 1118.66 50.32C1126.24 50.32 1131.01 47.888 1131.65 41.84H1123.81C1123.2 43.472 1121.41 43.92 1118.66 43.92C1115.23 43.92 1113.28 43.216 1113.28 40.4C1113.28 37.584 1115.23 36.88 1118.66 36.88C1121.41 36.88 1123.2 37.328 1123.81 38.96H1131.65C1131.01 32.912 1126.24 30.48 1118.66 30.48C1110.5 30.48 1105.6 33.296 1105.6 40.4ZM1151.06 37.2V30.8H1143.22V25.68L1135.54 27.6V30.8H1131.66V37.2H1135.54V44.336C1135.54 48.496 1138.48 50.32 1144.43 50.32C1146.96 50.32 1149.23 50.16 1151.06 49.84V43.6C1148.85 43.92 1147.89 43.92 1146.16 43.92C1143.92 43.92 1143.22 42.992 1143.22 41.168V37.2H1151.06ZM1152.02 24.4V29.52H1159.7V24.4H1152.02ZM1152.02 30.8V50H1159.7V30.8H1152.02ZM1173.72 50.32C1181.88 50.32 1186.78 47.504 1186.78 40.4C1186.78 33.296 1181.88 30.48 1173.72 30.48C1165.56 30.48 1160.66 33.296 1160.66 40.4C1160.66 47.504 1165.56 50.32 1173.72 50.32ZM1173.72 43.92C1170.3 43.92 1168.34 43.216 1168.34 40.4C1168.34 37.584 1170.3 36.88 1173.72 36.88C1177.14 36.88 1179.1 37.584 1179.1 40.4C1179.1 43.216 1177.14 43.92 1173.72 43.92ZM1204.69 30.48C1200.66 30.48 1197.72 31.76 1195.41 33.36V30.8H1187.73V50H1195.41V39.632C1196.92 38.192 1199.32 37.2 1201.59 37.2C1205.05 37.2 1206.23 38.608 1206.23 41.904V50H1213.91V38.768C1213.91 31.824 1209.01 30.48 1204.69 30.48Z" fill="white"/>
<path d="M1227.7 38.768C1227.7 46.576 1231.92 50.32 1241.78 50.32C1250.77 50.32 1255.41 47.152 1255.76 40.048H1247.25C1246.93 42.192 1245.3 43.28 1241.78 43.28C1236.88 43.28 1236.02 41.168 1236.02 38.768C1236.02 36.4 1236.85 34.32 1241.78 34.32C1245.3 34.32 1246.93 35.376 1247.25 37.488H1255.76C1255.41 30.416 1250.74 27.28 1241.78 27.28C1231.92 27.28 1227.7 30.992 1227.7 38.768ZM1269.47 50.32C1277.63 50.32 1282.53 47.504 1282.53 40.4C1282.53 33.296 1277.63 30.48 1269.47 30.48C1261.31 30.48 1256.41 33.296 1256.41 40.4C1256.41 47.504 1261.31 50.32 1269.47 50.32ZM1269.47 43.92C1266.05 43.92 1264.09 43.216 1264.09 40.4C1264.09 37.584 1266.05 36.88 1269.47 36.88C1272.89 36.88 1274.85 37.584 1274.85 40.4C1274.85 43.216 1272.89 43.92 1269.47 43.92ZM1316.38 30.48C1311.71 30.48 1308.76 32.08 1306.75 34C1305.24 31.184 1302.2 30.48 1299.8 30.48C1295.13 30.48 1292.86 32.4 1291.16 34V30.8H1283.48V50H1291.16V39.632C1292.8 38.032 1294.43 37.2 1296.38 37.2C1299.2 37.2 1300.06 38.608 1300.06 41.904V50H1307.74V39.632C1309.37 38.032 1311 37.2 1312.96 37.2C1315.77 37.2 1316.64 38.608 1316.64 41.904V50H1324.32V38.448C1324.32 31.824 1319.74 30.48 1316.38 30.48ZM1325.61 24.4V29.52H1333.29V24.4H1325.61ZM1325.61 30.8V50H1333.29V30.8H1325.61ZM1351.54 30.48C1347.51 30.48 1344.56 31.76 1342.26 33.36V30.8H1334.58V50H1342.26V39.632C1343.76 38.192 1346.16 37.2 1348.43 37.2C1351.89 37.2 1353.07 38.608 1353.07 41.904V50H1360.75V38.768C1360.75 31.824 1355.86 30.48 1351.54 30.48ZM1380.16 30.8V33.68C1378.49 31.664 1375.77 30.48 1371.9 30.48C1365.98 30.48 1361.73 33.296 1361.73 39.76C1361.73 46.224 1365.98 49.04 1371.9 49.04C1375.77 49.04 1378.49 47.856 1380.16 45.84C1380.09 50.704 1378.08 51.6 1374.33 51.6C1370.17 51.6 1365.95 50.672 1363.74 50.256V56.496C1365.57 56.976 1370.27 58 1375.74 58C1382.33 58 1387.84 55.216 1387.84 47.536V30.8H1380.16ZM1374.78 42.64C1370.72 42.64 1369.41 41.936 1369.41 39.76C1369.41 37.584 1370.72 36.88 1374.78 36.88C1378.85 36.88 1380.16 37.584 1380.16 39.76C1380.16 41.936 1378.85 42.64 1374.78 42.64ZM1401.6 42.096C1401.6 48.752 1406.72 50.32 1415.91 50.32C1425.09 50.32 1430.21 48.752 1430.21 42.576C1430.21 36.72 1424.74 36.112 1415.91 35.76C1411.04 35.568 1410.24 35.6 1410.24 34.736C1410.24 33.872 1411.04 33.68 1414.95 33.68C1419.01 33.68 1420.93 33.936 1420.93 35.12H1429.25C1429.25 29.392 1424.32 27.28 1415.59 27.28C1406.75 27.28 1401.92 29.392 1401.92 34.32C1401.92 39.536 1405.79 41.2 1415.91 41.52C1421.15 41.68 1421.89 41.808 1421.89 42.768C1421.89 43.6 1421.15 43.92 1416.23 43.92C1410.95 43.92 1409.92 43.184 1409.92 42.096H1401.6Z" fill="#4AED52"/>
</svg>
