<svg width="1788" height="80" viewBox="0 0 1788 80" fill="none" xmlns="http://www.w3.org/2000/svg">
<path d="M0 1H1788M1788 79H0" stroke="#FFF7F7"/>
<path d="M21.184 27.6V40.816L11.52 27.6H0.64V50H8.96V36.784L18.624 50H29.504V27.6H21.184ZM43.2123 44.24C41.1003 44.24 38.9563 43.728 38.3163 41.68H56.5243C56.5243 33.296 51.4363 30.48 43.5323 30.48C35.6923 30.48 30.4763 33.296 30.4763 40.4C30.4763 47.504 35.6923 50.32 43.2123 50.32C51.1163 50.32 55.2443 47.888 56.2043 42.8H48.6843C47.1163 44.048 45.9963 44.24 43.2123 44.24ZM43.5003 35.92C45.5483 35.92 47.4683 36.112 48.3323 37.84H38.6683C39.5323 36.112 41.4523 35.92 43.5003 35.92ZM88.5853 30.8L84.1373 42.896L79.9133 30.8H71.9132L67.6893 42.896L63.2413 30.8H54.6013L62.6013 50H71.9132L75.9133 39.984L79.9133 50H89.2253L97.2253 30.8H88.5853ZM110.664 38.768C110.664 46.576 114.888 50.32 124.744 50.32C133.736 50.32 138.376 47.152 138.728 40.048H130.216C129.896 42.192 128.264 43.28 124.744 43.28C119.848 43.28 118.984 41.168 118.984 38.768C118.984 36.4 119.816 34.32 124.744 34.32C128.264 34.32 129.896 35.376 130.216 37.488H138.728C138.376 30.416 133.704 27.28 124.744 27.28C114.888 27.28 110.664 30.992 110.664 38.768ZM152.439 50.32C160.599 50.32 165.495 47.504 165.495 40.4C165.495 33.296 160.599 30.48 152.439 30.48C144.279 30.48 139.383 33.296 139.383 40.4C139.383 47.504 144.279 50.32 152.439 50.32ZM152.439 43.92C149.015 43.92 147.062 43.216 147.062 40.4C147.062 37.584 149.015 36.88 152.439 36.88C155.863 36.88 157.815 37.584 157.815 40.4C157.815 43.216 155.863 43.92 152.439 43.92ZM166.453 24.4V50H174.133V24.4H166.453ZM175.421 24.4V50H183.101V24.4H175.421ZM196.806 44.24C194.694 44.24 192.55 43.728 191.91 41.68H210.118C210.118 33.296 205.03 30.48 197.126 30.48C189.286 30.48 184.07 33.296 184.07 40.4C184.07 47.504 189.286 50.32 196.806 50.32C204.71 50.32 208.838 47.888 209.798 42.8H202.278C200.71 44.048 199.59 44.24 196.806 44.24ZM197.094 35.92C199.142 35.92 201.062 36.112 201.926 37.84H192.262C193.126 36.112 195.046 35.92 197.094 35.92ZM210.758 40.4C210.758 47.504 215.654 50.32 223.814 50.32C231.398 50.32 236.166 47.888 236.806 41.84H228.966C228.358 43.472 226.566 43.92 223.814 43.92C220.39 43.92 218.438 43.216 218.438 40.4C218.438 37.584 220.39 36.88 223.814 36.88C226.566 36.88 228.358 37.328 228.966 38.96H236.806C236.166 32.912 231.398 30.48 223.814 30.48C215.654 30.48 210.758 33.296 210.758 40.4ZM256.212 37.2V30.8H248.372V25.68L240.692 27.6V30.8H236.82V37.2H240.692V44.336C240.692 48.496 243.636 50.32 249.588 50.32C252.116 50.32 254.388 50.16 256.212 49.84V43.6C254.004 43.92 253.044 43.92 251.316 43.92C249.076 43.92 248.372 42.992 248.372 41.168V37.2H256.212ZM257.171 24.4V29.52H264.851V24.4H257.171ZM257.171 30.8V50H264.851V30.8H257.171ZM278.876 50.32C287.036 50.32 291.932 47.504 291.932 40.4C291.932 33.296 287.036 30.48 278.876 30.48C270.716 30.48 265.82 33.296 265.82 40.4C265.82 47.504 270.716 50.32 278.876 50.32ZM278.876 43.92C275.452 43.92 273.5 43.216 273.5 40.4C273.5 37.584 275.452 36.88 278.876 36.88C282.3 36.88 284.252 37.584 284.252 40.4C284.252 43.216 282.3 43.92 278.876 43.92ZM309.85 30.48C305.818 30.48 302.874 31.76 300.57 33.36V30.8H292.89V50H300.57V39.632C302.074 38.192 304.474 37.2 306.746 37.2C310.202 37.2 311.386 38.608 311.386 41.904V50H319.066V38.768C319.066 31.824 314.17 30.48 309.85 30.48Z" fill="white"/>
<circle cx="343.5" cy="40" r="7.5" fill="#4AED52"/>
<path d="M388.184 27.6V40.816L378.52 27.6H367.64V50H375.96V36.784L385.624 50H396.504V27.6H388.184ZM410.212 44.24C408.1 44.24 405.956 43.728 405.316 41.68H423.524C423.524 33.296 418.436 30.48 410.532 30.48C402.692 30.48 397.476 33.296 397.476 40.4C397.476 47.504 402.692 50.32 410.212 50.32C418.116 50.32 422.244 47.888 423.204 42.8H415.684C414.116 44.048 412.996 44.24 410.212 44.24ZM410.5 35.92C412.548 35.92 414.468 36.112 415.332 37.84H405.668C406.532 36.112 408.452 35.92 410.5 35.92ZM455.585 30.8L451.137 42.896L446.913 30.8H438.913L434.689 42.896L430.241 30.8H421.601L429.601 50H438.913L442.913 39.984L446.913 50H456.225L464.225 30.8H455.585ZM477.664 38.768C477.664 46.576 481.888 50.32 491.744 50.32C500.736 50.32 505.376 47.152 505.728 40.048H497.216C496.896 42.192 495.264 43.28 491.744 43.28C486.848 43.28 485.984 41.168 485.984 38.768C485.984 36.4 486.816 34.32 491.744 34.32C495.264 34.32 496.896 35.376 497.216 37.488H505.728C505.376 30.416 500.704 27.28 491.744 27.28C481.888 27.28 477.664 30.992 477.664 38.768ZM519.439 50.32C527.599 50.32 532.495 47.504 532.495 40.4C532.495 33.296 527.599 30.48 519.439 30.48C511.279 30.48 506.383 33.296 506.383 40.4C506.383 47.504 511.279 50.32 519.439 50.32ZM519.439 43.92C516.015 43.92 514.062 43.216 514.062 40.4C514.062 37.584 516.015 36.88 519.439 36.88C522.863 36.88 524.815 37.584 524.815 40.4C524.815 43.216 522.863 43.92 519.439 43.92ZM533.453 24.4V50H541.133V24.4H533.453ZM542.421 24.4V50H550.101V24.4H542.421ZM563.806 44.24C561.694 44.24 559.55 43.728 558.91 41.68H577.118C577.118 33.296 572.03 30.48 564.126 30.48C556.286 30.48 551.07 33.296 551.07 40.4C551.07 47.504 556.286 50.32 563.806 50.32C571.71 50.32 575.838 47.888 576.798 42.8H569.278C567.71 44.048 566.59 44.24 563.806 44.24ZM564.094 35.92C566.142 35.92 568.062 36.112 568.926 37.84H559.262C560.126 36.112 562.046 35.92 564.094 35.92ZM577.758 40.4C577.758 47.504 582.654 50.32 590.814 50.32C598.398 50.32 603.166 47.888 603.806 41.84H595.966C595.358 43.472 593.566 43.92 590.814 43.92C587.39 43.92 585.438 43.216 585.438 40.4C585.438 37.584 587.39 36.88 590.814 36.88C593.566 36.88 595.358 37.328 595.966 38.96H603.806C603.166 32.912 598.398 30.48 590.814 30.48C582.654 30.48 577.758 33.296 577.758 40.4ZM623.212 37.2V30.8H615.372V25.68L607.692 27.6V30.8H603.82V37.2H607.692V44.336C607.692 48.496 610.636 50.32 616.588 50.32C619.116 50.32 621.388 50.16 623.212 49.84V43.6C621.004 43.92 620.044 43.92 618.316 43.92C616.076 43.92 615.372 42.992 615.372 41.168V37.2H623.212ZM624.171 24.4V29.52H631.851V24.4H624.171ZM624.171 30.8V50H631.851V30.8H624.171ZM645.876 50.32C654.036 50.32 658.932 47.504 658.932 40.4C658.932 33.296 654.036 30.48 645.876 30.48C637.716 30.48 632.82 33.296 632.82 40.4C632.82 47.504 637.716 50.32 645.876 50.32ZM645.876 43.92C642.452 43.92 640.5 43.216 640.5 40.4C640.5 37.584 642.452 36.88 645.876 36.88C649.3 36.88 651.252 37.584 651.252 40.4C651.252 43.216 649.3 43.92 645.876 43.92ZM676.85 30.48C672.818 30.48 669.874 31.76 667.57 33.36V30.8H659.89V50H667.57V39.632C669.074 38.192 671.474 37.2 673.746 37.2C677.202 37.2 678.386 38.608 678.386 41.904V50H686.066V38.768C686.066 31.824 681.17 30.48 676.85 30.48Z" fill="white"/>
<circle cx="710.5" cy="40" r="7.5" fill="#4AED52"/>
<path d="M755.184 27.6V40.816L745.52 27.6H734.64V50H742.96V36.784L752.624 50H763.504V27.6H755.184ZM777.212 44.24C775.1 44.24 772.956 43.728 772.316 41.68H790.524C790.524 33.296 785.436 30.48 777.532 30.48C769.692 30.48 764.476 33.296 764.476 40.4C764.476 47.504 769.692 50.32 777.212 50.32C785.116 50.32 789.244 47.888 790.204 42.8H782.684C781.116 44.048 779.996 44.24 777.212 44.24ZM777.5 35.92C779.548 35.92 781.468 36.112 782.332 37.84H772.668C773.532 36.112 775.452 35.92 777.5 35.92ZM822.585 30.8L818.137 42.896L813.913 30.8H805.913L801.689 42.896L797.241 30.8H788.601L796.601 50H805.913L809.913 39.984L813.913 50H823.225L831.225 30.8H822.585ZM844.664 38.768C844.664 46.576 848.888 50.32 858.744 50.32C867.736 50.32 872.376 47.152 872.728 40.048H864.216C863.896 42.192 862.264 43.28 858.744 43.28C853.848 43.28 852.984 41.168 852.984 38.768C852.984 36.4 853.816 34.32 858.744 34.32C862.264 34.32 863.896 35.376 864.216 37.488H872.728C872.376 30.416 867.704 27.28 858.744 27.28C848.888 27.28 844.664 30.992 844.664 38.768ZM886.439 50.32C894.599 50.32 899.495 47.504 899.495 40.4C899.495 33.296 894.599 30.48 886.439 30.48C878.279 30.48 873.383 33.296 873.383 40.4C873.383 47.504 878.279 50.32 886.439 50.32ZM886.439 43.92C883.015 43.92 881.062 43.216 881.062 40.4C881.062 37.584 883.015 36.88 886.439 36.88C889.863 36.88 891.815 37.584 891.815 40.4C891.815 43.216 889.863 43.92 886.439 43.92ZM900.453 24.4V50H908.133V24.4H900.453ZM909.421 24.4V50H917.101V24.4H909.421ZM930.806 44.24C928.694 44.24 926.55 43.728 925.91 41.68H944.118C944.118 33.296 939.03 30.48 931.126 30.48C923.286 30.48 918.07 33.296 918.07 40.4C918.07 47.504 923.286 50.32 930.806 50.32C938.71 50.32 942.838 47.888 943.798 42.8H936.278C934.71 44.048 933.59 44.24 930.806 44.24ZM931.094 35.92C933.142 35.92 935.062 36.112 935.926 37.84H926.262C927.126 36.112 929.046 35.92 931.094 35.92ZM944.758 40.4C944.758 47.504 949.654 50.32 957.814 50.32C965.398 50.32 970.166 47.888 970.806 41.84H962.966C962.358 43.472 960.566 43.92 957.814 43.92C954.39 43.92 952.438 43.216 952.438 40.4C952.438 37.584 954.39 36.88 957.814 36.88C960.566 36.88 962.358 37.328 962.966 38.96H970.806C970.166 32.912 965.398 30.48 957.814 30.48C949.654 30.48 944.758 33.296 944.758 40.4ZM990.212 37.2V30.8H982.372V25.68L974.692 27.6V30.8H970.82V37.2H974.692V44.336C974.692 48.496 977.636 50.32 983.588 50.32C986.116 50.32 988.388 50.16 990.212 49.84V43.6C988.004 43.92 987.044 43.92 985.316 43.92C983.076 43.92 982.372 42.992 982.372 41.168V37.2H990.212ZM991.171 24.4V29.52H998.851V24.4H991.171ZM991.171 30.8V50H998.851V30.8H991.171ZM1012.88 50.32C1021.04 50.32 1025.93 47.504 1025.93 40.4C1025.93 33.296 1021.04 30.48 1012.88 30.48C1004.72 30.48 999.82 33.296 999.82 40.4C999.82 47.504 1004.72 50.32 1012.88 50.32ZM1012.88 43.92C1009.45 43.92 1007.5 43.216 1007.5 40.4C1007.5 37.584 1009.45 36.88 1012.88 36.88C1016.3 36.88 1018.25 37.584 1018.25 40.4C1018.25 43.216 1016.3 43.92 1012.88 43.92ZM1043.85 30.48C1039.82 30.48 1036.87 31.76 1034.57 33.36V30.8H1026.89V50H1034.57V39.632C1036.07 38.192 1038.47 37.2 1040.75 37.2C1044.2 37.2 1045.39 38.608 1045.39 41.904V50H1053.07V38.768C1053.07 31.824 1048.17 30.48 1043.85 30.48Z" fill="white"/>
<circle cx="1077.5" cy="40" r="7.5" fill="#4AED52"/>
<path d="M1122.18 27.6V40.816L1112.52 27.6H1101.64V50H1109.96V36.784L1119.62 50H1130.5V27.6H1122.18ZM1144.21 44.24C1142.1 44.24 1139.96 43.728 1139.32 41.68H1157.52C1157.52 33.296 1152.44 30.48 1144.53 30.48C1136.69 30.48 1131.48 33.296 1131.48 40.4C1131.48 47.504 1136.69 50.32 1144.21 50.32C1152.12 50.32 1156.24 47.888 1157.2 42.8H1149.68C1148.12 44.048 1147 44.24 1144.21 44.24ZM1144.5 35.92C1146.55 35.92 1148.47 36.112 1149.33 37.84H1139.67C1140.53 36.112 1142.45 35.92 1144.5 35.92ZM1189.59 30.8L1185.14 42.896L1180.91 30.8H1172.91L1168.69 42.896L1164.24 30.8H1155.6L1163.6 50H1172.91L1176.91 39.984L1180.91 50H1190.23L1198.23 30.8H1189.59ZM1211.66 38.768C1211.66 46.576 1215.89 50.32 1225.74 50.32C1234.74 50.32 1239.38 47.152 1239.73 40.048H1231.22C1230.9 42.192 1229.26 43.28 1225.74 43.28C1220.85 43.28 1219.98 41.168 1219.98 38.768C1219.98 36.4 1220.82 34.32 1225.74 34.32C1229.26 34.32 1230.9 35.376 1231.22 37.488H1239.73C1239.38 30.416 1234.7 27.28 1225.74 27.28C1215.89 27.28 1211.66 30.992 1211.66 38.768ZM1253.44 50.32C1261.6 50.32 1266.49 47.504 1266.49 40.4C1266.49 33.296 1261.6 30.48 1253.44 30.48C1245.28 30.48 1240.38 33.296 1240.38 40.4C1240.38 47.504 1245.28 50.32 1253.44 50.32ZM1253.44 43.92C1250.01 43.92 1248.06 43.216 1248.06 40.4C1248.06 37.584 1250.01 36.88 1253.44 36.88C1256.86 36.88 1258.81 37.584 1258.81 40.4C1258.81 43.216 1256.86 43.92 1253.44 43.92ZM1267.45 24.4V50H1275.13V24.4H1267.45ZM1276.42 24.4V50H1284.1V24.4H1276.42ZM1297.81 44.24C1295.69 44.24 1293.55 43.728 1292.91 41.68H1311.12C1311.12 33.296 1306.03 30.48 1298.13 30.48C1290.29 30.48 1285.07 33.296 1285.07 40.4C1285.07 47.504 1290.29 50.32 1297.81 50.32C1305.71 50.32 1309.84 47.888 1310.8 42.8H1303.28C1301.71 44.048 1300.59 44.24 1297.81 44.24ZM1298.09 35.92C1300.14 35.92 1302.06 36.112 1302.93 37.84H1293.26C1294.13 36.112 1296.05 35.92 1298.09 35.92ZM1311.76 40.4C1311.76 47.504 1316.65 50.32 1324.81 50.32C1332.4 50.32 1337.17 47.888 1337.81 41.84H1329.97C1329.36 43.472 1327.57 43.92 1324.81 43.92C1321.39 43.92 1319.44 43.216 1319.44 40.4C1319.44 37.584 1321.39 36.88 1324.81 36.88C1327.57 36.88 1329.36 37.328 1329.97 38.96H1337.81C1337.17 32.912 1332.4 30.48 1324.81 30.48C1316.65 30.48 1311.76 33.296 1311.76 40.4ZM1357.21 37.2V30.8H1349.37V25.68L1341.69 27.6V30.8H1337.82V37.2H1341.69V44.336C1341.69 48.496 1344.64 50.32 1350.59 50.32C1353.12 50.32 1355.39 50.16 1357.21 49.84V43.6C1355 43.92 1354.04 43.92 1352.32 43.92C1350.08 43.92 1349.37 42.992 1349.37 41.168V37.2H1357.21ZM1358.17 24.4V29.52H1365.85V24.4H1358.17ZM1358.17 30.8V50H1365.85V30.8H1358.17ZM1379.88 50.32C1388.04 50.32 1392.93 47.504 1392.93 40.4C1392.93 33.296 1388.04 30.48 1379.88 30.48C1371.72 30.48 1366.82 33.296 1366.82 40.4C1366.82 47.504 1371.72 50.32 1379.88 50.32ZM1379.88 43.92C1376.45 43.92 1374.5 43.216 1374.5 40.4C1374.5 37.584 1376.45 36.88 1379.88 36.88C1383.3 36.88 1385.25 37.584 1385.25 40.4C1385.25 43.216 1383.3 43.92 1379.88 43.92ZM1410.85 30.48C1406.82 30.48 1403.87 31.76 1401.57 33.36V30.8H1393.89V50H1401.57V39.632C1403.07 38.192 1405.47 37.2 1407.75 37.2C1411.2 37.2 1412.39 38.608 1412.39 41.904V50H1420.07V38.768C1420.07 31.824 1415.17 30.48 1410.85 30.48Z" fill="white"/>
<circle cx="1444.5" cy="40" r="7.5" fill="#4AED52"/>
<path d="M1489.18 27.6V40.816L1479.52 27.6H1468.64V50H1476.96V36.784L1486.62 50H1497.5V27.6H1489.18ZM1511.21 44.24C1509.1 44.24 1506.96 43.728 1506.32 41.68H1524.52C1524.52 33.296 1519.44 30.48 1511.53 30.48C1503.69 30.48 1498.48 33.296 1498.48 40.4C1498.48 47.504 1503.69 50.32 1511.21 50.32C1519.12 50.32 1523.24 47.888 1524.2 42.8H1516.68C1515.12 44.048 1514 44.24 1511.21 44.24ZM1511.5 35.92C1513.55 35.92 1515.47 36.112 1516.33 37.84H1506.67C1507.53 36.112 1509.45 35.92 1511.5 35.92ZM1556.59 30.8L1552.14 42.896L1547.91 30.8H1539.91L1535.69 42.896L1531.24 30.8H1522.6L1530.6 50H1539.91L1543.91 39.984L1547.91 50H1557.23L1565.23 30.8H1556.59ZM1578.66 38.768C1578.66 46.576 1582.89 50.32 1592.74 50.32C1601.74 50.32 1606.38 47.152 1606.73 40.048H1598.22C1597.9 42.192 1596.26 43.28 1592.74 43.28C1587.85 43.28 1586.98 41.168 1586.98 38.768C1586.98 36.4 1587.82 34.32 1592.74 34.32C1596.26 34.32 1597.9 35.376 1598.22 37.488H1606.73C1606.38 30.416 1601.7 27.28 1592.74 27.28C1582.89 27.28 1578.66 30.992 1578.66 38.768ZM1620.44 50.32C1628.6 50.32 1633.49 47.504 1633.49 40.4C1633.49 33.296 1628.6 30.48 1620.44 30.48C1612.28 30.48 1607.38 33.296 1607.38 40.4C1607.38 47.504 1612.28 50.32 1620.44 50.32ZM1620.44 43.92C1617.01 43.92 1615.06 43.216 1615.06 40.4C1615.06 37.584 1617.01 36.88 1620.44 36.88C1623.86 36.88 1625.81 37.584 1625.81 40.4C1625.81 43.216 1623.86 43.92 1620.44 43.92ZM1634.45 24.4V50H1642.13V24.4H1634.45ZM1643.42 24.4V50H1651.1V24.4H1643.42ZM1664.81 44.24C1662.69 44.24 1660.55 43.728 1659.91 41.68H1678.12C1678.12 33.296 1673.03 30.48 1665.13 30.48C1657.29 30.48 1652.07 33.296 1652.07 40.4C1652.07 47.504 1657.29 50.32 1664.81 50.32C1672.71 50.32 1676.84 47.888 1677.8 42.8H1670.28C1668.71 44.048 1667.59 44.24 1664.81 44.24ZM1665.09 35.92C1667.14 35.92 1669.06 36.112 1669.93 37.84H1660.26C1661.13 36.112 1663.05 35.92 1665.09 35.92ZM1678.76 40.4C1678.76 47.504 1683.65 50.32 1691.81 50.32C1699.4 50.32 1704.17 47.888 1704.81 41.84H1696.97C1696.36 43.472 1694.57 43.92 1691.81 43.92C1688.39 43.92 1686.44 43.216 1686.44 40.4C1686.44 37.584 1688.39 36.88 1691.81 36.88C1694.57 36.88 1696.36 37.328 1696.97 38.96H1704.81C1704.17 32.912 1699.4 30.48 1691.81 30.48C1683.65 30.48 1678.76 33.296 1678.76 40.4ZM1724.21 37.2V30.8H1716.37V25.68L1708.69 27.6V30.8H1704.82V37.2H1708.69V44.336C1708.69 48.496 1711.64 50.32 1717.59 50.32C1720.12 50.32 1722.39 50.16 1724.21 49.84V43.6C1722 43.92 1721.04 43.92 1719.32 43.92C1717.08 43.92 1716.37 42.992 1716.37 41.168V37.2H1724.21ZM1725.17 24.4V29.52H1732.85V24.4H1725.17ZM1725.17 30.8V50H1732.85V30.8H1725.17ZM1746.88 50.32C1755.04 50.32 1759.93 47.504 1759.93 40.4C1759.93 33.296 1755.04 30.48 1746.88 30.48C1738.72 30.48 1733.82 33.296 1733.82 40.4C1733.82 47.504 1738.72 50.32 1746.88 50.32ZM1746.88 43.92C1743.45 43.92 1741.5 43.216 1741.5 40.4C1741.5 37.584 1743.45 36.88 1746.88 36.88C1750.3 36.88 1752.25 37.584 1752.25 40.4C1752.25 43.216 1750.3 43.92 1746.88 43.92ZM1777.85 30.48C1773.82 30.48 1770.87 31.76 1768.57 33.36V30.8H1760.89V50H1768.57V39.632C1770.07 38.192 1772.47 37.2 1774.75 37.2C1778.2 37.2 1779.39 38.608 1779.39 41.904V50H1787.07V38.768C1787.07 31.824 1782.17 30.48 1777.85 30.48Z" fill="white"/>
</svg>
