<svg width="742" height="704" viewBox="0 0 742 704" fill="none" xmlns="http://www.w3.org/2000/svg">
<g filter="url(#filter0_b_59_528)">
<rect x="595" y="655" width="514" height="606" rx="6" transform="rotate(180 595 655)" fill="url(#paint0_linear_59_528)" fill-opacity="0.3"/>
<rect x="597.5" y="657.5" width="519" height="611" rx="8.5" transform="rotate(180 597.5 657.5)" stroke="url(#paint1_linear_59_528)" stroke-opacity="0.7" stroke-width="5"/>
</g>
<g opacity="0.6" filter="url(#filter1_b_59_528)">
<path d="M81.2683 521.177H595.268V653.177C595.268 656.491 592.582 659.177 589.268 659.177H87.2683C83.9546 659.177 81.2683 656.491 81.2683 653.177V521.177Z" fill="url(#paint2_linear_59_528)" fill-opacity="0.87"/>
</g>
<path d="M92.6283 568.177V554.057H94.8283L95.7683 556.877V568.177H92.6283ZM102.368 568.177L94.0483 557.517L94.8283 554.057L103.148 564.717L102.368 568.177ZM102.368 568.177L101.528 565.357V554.057H104.668V568.177H102.368ZM107.394 568.177V554.057H110.534V568.177H107.394ZM109.794 562.637V559.937H116.854V562.637H109.794ZM109.794 556.757V554.057H117.174V556.757H109.794ZM122.202 568.177V554.257H125.342V568.177H122.202ZM117.782 556.797V554.057H129.762V556.797H117.782ZM135.011 568.177V554.057H138.151V568.177H135.011ZM137.411 562.637V559.937H144.471V562.637H137.411ZM137.411 556.757V554.057H144.791V556.757H137.411ZM153.392 568.417C152.325 568.417 151.338 568.23 150.432 567.857C149.538 567.484 148.752 566.964 148.072 566.297C147.392 565.63 146.865 564.857 146.492 563.977C146.118 563.084 145.932 562.124 145.932 561.097C145.932 560.057 146.118 559.097 146.492 558.217C146.865 557.337 147.385 556.57 148.052 555.917C148.718 555.25 149.498 554.737 150.392 554.377C151.298 554.004 152.285 553.817 153.352 553.817C154.405 553.817 155.378 554.004 156.272 554.377C157.178 554.737 157.965 555.25 158.632 555.917C159.312 556.57 159.838 557.344 160.212 558.237C160.585 559.117 160.772 560.077 160.772 561.117C160.772 562.144 160.585 563.104 160.212 563.997C159.838 564.877 159.318 565.65 158.652 566.317C157.985 566.97 157.198 567.484 156.292 567.857C155.398 568.23 154.432 568.417 153.392 568.417ZM153.352 565.557C154.192 565.557 154.925 565.37 155.552 564.997C156.192 564.624 156.685 564.104 157.032 563.437C157.378 562.757 157.552 561.977 157.552 561.097C157.552 560.43 157.452 559.83 157.252 559.297C157.052 558.75 156.765 558.284 156.392 557.897C156.018 557.497 155.572 557.197 155.052 556.997C154.545 556.784 153.978 556.677 153.352 556.677C152.512 556.677 151.772 556.864 151.132 557.237C150.505 557.597 150.018 558.11 149.672 558.777C149.325 559.43 149.152 560.204 149.152 561.097C149.152 561.764 149.252 562.37 149.452 562.917C149.652 563.464 149.932 563.937 150.292 564.337C150.665 564.724 151.112 565.024 151.632 565.237C152.152 565.45 152.725 565.557 153.352 565.557ZM165.165 562.357V560.037H168.145C168.772 560.037 169.252 559.877 169.585 559.557C169.932 559.237 170.105 558.804 170.105 558.257C170.105 557.75 169.938 557.33 169.605 556.997C169.272 556.664 168.792 556.497 168.165 556.497H165.165V554.057H168.525C169.458 554.057 170.278 554.237 170.985 554.597C171.692 554.944 172.245 555.43 172.645 556.057C173.045 556.684 173.245 557.404 173.245 558.217C173.245 559.044 173.045 559.77 172.645 560.397C172.245 561.01 171.685 561.49 170.965 561.837C170.245 562.184 169.398 562.357 168.425 562.357H165.165ZM162.765 568.177V554.057H165.905V568.177H162.765ZM170.445 568.177L166.045 562.097L168.925 561.317L174.165 568.177H170.445ZM92.6283 590.177V576.057H95.7683V590.177H92.6283ZM95.0283 590.177V587.457H102.768V590.177H95.0283ZM95.0283 584.277V581.657H102.068V584.277H95.0283ZM95.0283 578.757V576.057H102.668V578.757H95.0283ZM109.06 590.177L103.62 576.057H106.98L111.12 587.477H109.74L113.94 576.057H117.26L111.76 590.177H109.06ZM118.917 590.177V576.057H122.057V590.177H118.917ZM121.317 590.177V587.457H129.057V590.177H121.317ZM121.317 584.277V581.657H128.357V584.277H121.317ZM121.317 578.757V576.057H128.957V578.757H121.317ZM133.622 584.357V582.037H136.602C137.229 582.037 137.709 581.877 138.042 581.557C138.389 581.237 138.562 580.804 138.562 580.257C138.562 579.75 138.395 579.33 138.062 578.997C137.729 578.664 137.249 578.497 136.622 578.497H133.622V576.057H136.982C137.915 576.057 138.735 576.237 139.442 576.597C140.149 576.944 140.702 577.43 141.102 578.057C141.502 578.684 141.702 579.404 141.702 580.217C141.702 581.044 141.502 581.77 141.102 582.397C140.702 583.01 140.142 583.49 139.422 583.837C138.702 584.184 137.855 584.357 136.882 584.357H133.622ZM131.222 590.177V576.057H134.362V590.177H131.222ZM138.902 590.177L134.502 584.097L137.382 583.317L142.622 590.177H138.902ZM147.671 584.917L142.231 576.057H145.871L150.051 583.217H147.711L151.891 576.057H155.451L149.971 584.917H147.671ZM147.291 590.177V583.477H150.431V590.177H147.291ZM162.747 590.417C161.681 590.417 160.694 590.23 159.787 589.857C158.894 589.484 158.107 588.964 157.427 588.297C156.747 587.63 156.221 586.857 155.847 585.977C155.474 585.084 155.287 584.124 155.287 583.097C155.287 582.057 155.474 581.097 155.847 580.217C156.221 579.337 156.741 578.57 157.407 577.917C158.074 577.25 158.854 576.737 159.747 576.377C160.654 576.004 161.641 575.817 162.707 575.817C163.761 575.817 164.734 576.004 165.627 576.377C166.534 576.737 167.321 577.25 167.987 577.917C168.667 578.57 169.194 579.344 169.567 580.237C169.941 581.117 170.127 582.077 170.127 583.117C170.127 584.144 169.941 585.104 169.567 585.997C169.194 586.877 168.674 587.65 168.007 588.317C167.341 588.97 166.554 589.484 165.647 589.857C164.754 590.23 163.787 590.417 162.747 590.417ZM162.707 587.557C163.547 587.557 164.281 587.37 164.907 586.997C165.547 586.624 166.041 586.104 166.387 585.437C166.734 584.757 166.907 583.977 166.907 583.097C166.907 582.43 166.807 581.83 166.607 581.297C166.407 580.75 166.121 580.284 165.747 579.897C165.374 579.497 164.927 579.197 164.407 578.997C163.901 578.784 163.334 578.677 162.707 578.677C161.867 578.677 161.127 578.864 160.487 579.237C159.861 579.597 159.374 580.11 159.027 580.777C158.681 581.43 158.507 582.204 158.507 583.097C158.507 583.764 158.607 584.37 158.807 584.917C159.007 585.464 159.287 585.937 159.647 586.337C160.021 586.724 160.467 587.024 160.987 587.237C161.507 587.45 162.081 587.557 162.707 587.557ZM172.12 590.177V576.057H174.32L175.26 578.877V590.177H172.12ZM181.86 590.177L173.54 579.517L174.32 576.057L182.64 586.717L181.86 590.177ZM181.86 590.177L181.02 587.357V576.057H184.16V590.177H181.86ZM186.886 590.177V576.057H190.026V590.177H186.886ZM189.286 590.177V587.457H197.026V590.177H189.286ZM189.286 584.277V581.657H196.326V584.277H189.286ZM189.286 578.757V576.057H196.926V578.757H189.286Z" fill="white"/>
<path opacity="0.7" d="M93.7483 617.177V615.577H96.9643C97.5296 615.577 97.967 615.401 98.2763 615.049C98.5856 614.697 98.7403 614.292 98.7403 613.833C98.7403 613.524 98.671 613.236 98.5323 612.969C98.3936 612.702 98.191 612.489 97.9243 612.329C97.6576 612.169 97.3376 612.089 96.9643 612.089H93.7483V610.489H96.6923C97.1723 610.489 97.5563 610.366 97.8443 610.121C98.1323 609.876 98.2763 609.513 98.2763 609.033C98.2763 608.553 98.1323 608.19 97.8443 607.945C97.5563 607.7 97.1723 607.577 96.6923 607.577H93.7483V605.977H96.7403C97.4976 605.977 98.127 606.116 98.6283 606.393C99.1296 606.67 99.503 607.028 99.7483 607.465C99.9936 607.902 100.116 608.372 100.116 608.873C100.116 609.46 99.951 609.977 99.6203 610.425C99.3003 610.873 98.8256 611.236 98.1963 611.513L98.3403 610.937C99.0443 611.225 99.5936 611.63 99.9883 612.153C100.383 612.676 100.58 613.289 100.58 613.993C100.58 614.569 100.436 615.097 100.148 615.577C99.871 616.057 99.455 616.446 98.9003 616.745C98.3563 617.033 97.6843 617.177 96.8843 617.177H93.7483ZM92.4843 617.177V605.977H94.3243V617.177H92.4843ZM104.677 617.257L101.397 609.497H103.333L105.573 615.193H105.013L107.381 609.497H109.333L105.765 617.257H104.677ZM102.389 620.377L104.773 615.465L105.765 617.257L104.341 620.377H102.389ZM113.922 617.177V605.977H115.762V617.177H113.922ZM118.187 617.177V605.977H120.027V617.177H118.187ZM119.451 617.177V615.497H125.723V617.177H119.451ZM119.451 612.265V610.649H125.179V612.265H119.451ZM119.451 607.657V605.977H125.643V607.657H119.451ZM127.625 617.177V605.977H129.465V617.177H127.625ZM128.889 617.177V615.497H135.161V617.177H128.889ZM128.889 612.265V610.649H134.617V612.265H128.889ZM128.889 607.657V605.977H135.081V607.657H128.889ZM137.062 617.177V605.977H138.902V617.177H137.062ZM138.326 617.177V615.497H144.598V617.177H138.326ZM138.326 612.265V610.649H144.054V612.265H138.326ZM138.326 607.657V605.977H144.518V607.657H138.326ZM152.823 617.337C151.938 617.337 151.186 617.177 150.567 616.857C149.948 616.537 149.394 616.068 148.903 615.449L150.151 614.201C150.46 614.649 150.828 615.001 151.255 615.257C151.682 615.502 152.226 615.625 152.887 615.625C153.506 615.625 153.996 615.497 154.359 615.241C154.732 614.985 154.919 614.633 154.919 614.185C154.919 613.812 154.823 613.508 154.631 613.273C154.439 613.038 154.183 612.846 153.863 612.697C153.554 612.537 153.207 612.398 152.823 612.281C152.45 612.153 152.071 612.014 151.687 611.865C151.314 611.705 150.967 611.508 150.647 611.273C150.338 611.038 150.087 610.734 149.895 610.361C149.703 609.988 149.607 609.513 149.607 608.937C149.607 608.276 149.767 607.716 150.087 607.257C150.418 606.788 150.86 606.43 151.415 606.185C151.97 605.94 152.588 605.817 153.271 605.817C154.007 605.817 154.663 605.961 155.239 606.249C155.826 606.537 156.3 606.905 156.663 607.353L155.415 608.601C155.095 608.238 154.759 607.972 154.407 607.801C154.066 607.62 153.671 607.529 153.223 607.529C152.668 607.529 152.231 607.641 151.911 607.865C151.602 608.089 151.447 608.404 151.447 608.809C151.447 609.15 151.543 609.428 151.735 609.641C151.927 609.844 152.178 610.02 152.487 610.169C152.807 610.308 153.154 610.441 153.527 610.569C153.911 610.697 154.29 610.841 154.663 611.001C155.047 611.161 155.394 611.369 155.703 611.625C156.023 611.87 156.279 612.19 156.471 612.585C156.663 612.98 156.759 613.476 156.759 614.073C156.759 615.076 156.402 615.87 155.687 616.457C154.983 617.044 154.028 617.337 152.823 617.337ZM159.858 617.177V615.577H163.074C163.639 615.577 164.076 615.401 164.386 615.049C164.695 614.697 164.85 614.292 164.85 613.833C164.85 613.524 164.78 613.236 164.642 612.969C164.503 612.702 164.3 612.489 164.034 612.329C163.767 612.169 163.447 612.089 163.074 612.089H159.858V610.489H162.802C163.282 610.489 163.666 610.366 163.954 610.121C164.242 609.876 164.386 609.513 164.386 609.033C164.386 608.553 164.242 608.19 163.954 607.945C163.666 607.7 163.282 607.577 162.802 607.577H159.858V605.977H162.85C163.607 605.977 164.236 606.116 164.738 606.393C165.239 606.67 165.612 607.028 165.858 607.465C166.103 607.902 166.226 608.372 166.226 608.873C166.226 609.46 166.06 609.977 165.73 610.425C165.41 610.873 164.935 611.236 164.306 611.513L164.45 610.937C165.154 611.225 165.703 611.63 166.098 612.153C166.492 612.676 166.69 613.289 166.69 613.993C166.69 614.569 166.546 615.097 166.258 615.577C165.98 616.057 165.564 616.446 165.01 616.745C164.466 617.033 163.794 617.177 162.994 617.177H159.858ZM158.594 617.177V605.977H160.434V617.177H158.594ZM171.75 617.177V605.977H173.03L177.686 613.641H176.854L181.51 605.977H182.79V617.177H180.95V609.209L181.366 609.321L177.91 615.001H176.63L173.174 609.321L173.59 609.209V617.177H171.75ZM189.539 617.337C188.696 617.337 187.939 617.145 187.267 616.761C186.595 616.377 186.061 615.854 185.667 615.193C185.283 614.521 185.091 613.764 185.091 612.921V605.977H186.931V612.905C186.931 613.449 187.043 613.924 187.267 614.329C187.501 614.724 187.816 615.033 188.211 615.257C188.605 615.47 189.048 615.577 189.539 615.577C190.04 615.577 190.483 615.47 190.867 615.257C191.251 615.033 191.555 614.724 191.779 614.329C192.003 613.924 192.115 613.454 192.115 612.921V605.977H193.955V612.937C193.955 613.78 193.763 614.532 193.379 615.193C192.995 615.854 192.472 616.377 191.811 616.761C191.149 617.145 190.392 617.337 189.539 617.337ZM197.643 617.337C196.993 617.337 196.411 617.209 195.899 616.953C195.398 616.686 194.993 616.334 194.683 615.897L195.979 614.713C196.161 614.99 196.39 615.204 196.667 615.353C196.945 615.502 197.249 615.577 197.579 615.577C197.942 615.577 198.251 615.502 198.507 615.353C198.763 615.204 198.961 614.99 199.099 614.713C199.238 614.436 199.307 614.105 199.307 613.721V605.977H201.147V613.577C201.147 614.324 200.998 614.98 200.699 615.545C200.411 616.11 200.006 616.553 199.483 616.873C198.961 617.182 198.347 617.337 197.643 617.337Z" fill="white"/>
<rect x="413.268" y="564.177" width="163" height="56" rx="6" fill="#00031A"/>
<path d="M444.694 599.397C443.64 599.397 442.66 599.217 441.754 598.857C440.86 598.484 440.074 597.964 439.394 597.297C438.727 596.63 438.207 595.857 437.834 594.977C437.46 594.084 437.274 593.124 437.274 592.097C437.274 591.07 437.46 590.117 437.834 589.237C438.207 588.344 438.727 587.57 439.394 586.917C440.06 586.264 440.84 585.757 441.734 585.397C442.64 585.024 443.62 584.837 444.674 584.837C445.794 584.837 446.787 585.017 447.654 585.377C448.534 585.737 449.3 586.23 449.954 586.857L447.854 588.977C447.48 588.577 447.027 588.264 446.494 588.037C445.974 587.81 445.367 587.697 444.674 587.697C444.06 587.697 443.494 587.804 442.974 588.017C442.467 588.217 442.027 588.51 441.654 588.897C441.294 589.284 441.007 589.75 440.794 590.297C440.594 590.844 440.494 591.444 440.494 592.097C440.494 592.764 440.594 593.37 440.794 593.917C441.007 594.464 441.294 594.93 441.654 595.317C442.027 595.704 442.467 596.004 442.974 596.217C443.494 596.43 444.06 596.537 444.674 596.537C445.394 596.537 446.02 596.424 446.554 596.197C447.087 595.97 447.547 595.657 447.934 595.257L450.054 597.377C449.374 598.004 448.594 598.497 447.714 598.857C446.847 599.217 445.84 599.397 444.694 599.397ZM451.783 599.177V585.057H454.923V599.177H451.783ZM454.203 599.177V596.417H461.183V599.177H454.203ZM461.563 599.177L467.163 585.057H470.003L475.543 599.177H472.223L467.983 587.457H469.123L464.823 599.177H461.563ZM464.743 596.617V594.057H472.443V596.617H464.743ZM477.037 599.177V585.057H480.177V599.177H477.037ZM482.896 599.177V585.057H485.136L490.696 593.717H489.556L495.096 585.057H497.356V599.177H494.216V590.357L494.776 590.497L491.156 596.137H489.076L485.476 590.497L486.016 590.357V599.177H482.896ZM503.873 599.177V585.057H506.073L507.013 587.877V599.177H503.873ZM513.613 599.177L505.293 588.517L506.073 585.057L514.393 595.717L513.613 599.177ZM513.613 599.177L512.773 596.357V585.057H515.913V599.177H513.613ZM525.378 599.417C524.312 599.417 523.325 599.23 522.418 598.857C521.525 598.484 520.738 597.964 520.058 597.297C519.378 596.63 518.852 595.857 518.478 594.977C518.105 594.084 517.918 593.124 517.918 592.097C517.918 591.057 518.105 590.097 518.478 589.217C518.852 588.337 519.372 587.57 520.038 586.917C520.705 586.25 521.485 585.737 522.378 585.377C523.285 585.004 524.272 584.817 525.338 584.817C526.392 584.817 527.365 585.004 528.258 585.377C529.165 585.737 529.952 586.25 530.618 586.917C531.298 587.57 531.825 588.344 532.198 589.237C532.572 590.117 532.758 591.077 532.758 592.117C532.758 593.144 532.572 594.104 532.198 594.997C531.825 595.877 531.305 596.65 530.638 597.317C529.972 597.97 529.185 598.484 528.278 598.857C527.385 599.23 526.418 599.417 525.378 599.417ZM525.338 596.557C526.178 596.557 526.912 596.37 527.538 595.997C528.178 595.624 528.672 595.104 529.018 594.437C529.365 593.757 529.538 592.977 529.538 592.097C529.538 591.43 529.438 590.83 529.238 590.297C529.038 589.75 528.752 589.284 528.378 588.897C528.005 588.497 527.558 588.197 527.038 587.997C526.532 587.784 525.965 587.677 525.338 587.677C524.498 587.677 523.758 587.864 523.118 588.237C522.492 588.597 522.005 589.11 521.658 589.777C521.312 590.43 521.138 591.204 521.138 592.097C521.138 592.764 521.238 593.37 521.438 593.917C521.638 594.464 521.918 594.937 522.278 595.337C522.652 595.724 523.098 596.024 523.618 596.237C524.138 596.45 524.712 596.557 525.338 596.557ZM537.744 599.177L533.204 585.057H536.324L539.644 595.917H538.424L541.664 585.057H544.124L547.364 595.917H546.164L549.464 585.057H552.564L548.024 599.177H545.564L542.304 588.317H543.464L540.204 599.177H537.744Z" fill="white"/>
<g opacity="0.5" filter="url(#filter2_f_59_528)">
<ellipse cx="344.163" cy="352.164" rx="241.054" ry="253.853" transform="rotate(154.36 344.163 352.164)" fill="url(#paint3_linear_59_528)"/>
</g>
<defs>
<filter id="filter0_b_59_528" x="-24" y="-56" width="724" height="816" filterUnits="userSpaceOnUse" color-interpolation-filters="sRGB">
<feFlood flood-opacity="0" result="BackgroundImageFix"/>
<feGaussianBlur in="BackgroundImageFix" stdDeviation="50"/>
<feComposite in2="SourceAlpha" operator="in" result="effect1_backgroundBlur_59_528"/>
<feBlend mode="normal" in="SourceGraphic" in2="effect1_backgroundBlur_59_528" result="shape"/>
</filter>
<filter id="filter1_b_59_528" x="71.2683" y="511.177" width="534" height="158" filterUnits="userSpaceOnUse" color-interpolation-filters="sRGB">
<feFlood flood-opacity="0" result="BackgroundImageFix"/>
<feGaussianBlur in="BackgroundImageFix" stdDeviation="5"/>
<feComposite in2="SourceAlpha" operator="in" result="effect1_backgroundBlur_59_528"/>
<feBlend mode="normal" in="SourceGraphic" in2="effect1_backgroundBlur_59_528" result="shape"/>
</filter>
<filter id="filter2_f_59_528" x="0.608887" y="0.59613" width="687.109" height="703.135" filterUnits="userSpaceOnUse" color-interpolation-filters="sRGB">
<feFlood flood-opacity="0" result="BackgroundImageFix"/>
<feBlend mode="normal" in="SourceGraphic" in2="BackgroundImageFix" result="shape"/>
<feGaussianBlur stdDeviation="50" result="effect1_foregroundBlur_59_528"/>
</filter>
<linearGradient id="paint0_linear_59_528" x1="571.487" y1="606.649" x2="1244.47" y2="1259.64" gradientUnits="userSpaceOnUse">
<stop stop-color="white" stop-opacity="0.44"/>
<stop offset="1" stop-color="#8F8F8F" stop-opacity="0.21"/>
</linearGradient>
<linearGradient id="paint1_linear_59_528" x1="545.5" y1="576.888" x2="1257.7" y2="1255.72" gradientUnits="userSpaceOnUse">
<stop stop-color="#FF20EA"/>
<stop offset="0.505208" stop-color="#4AED52"/>
<stop offset="1" stop-color="#BD24E6"/>
</linearGradient>
<linearGradient id="paint2_linear_59_528" x1="57.7555" y1="510.166" x2="125.967" y2="800.804" gradientUnits="userSpaceOnUse">
<stop stop-color="white" stop-opacity="0.67"/>
<stop offset="1" stop-color="white" stop-opacity="0.21"/>
</linearGradient>
<linearGradient id="paint3_linear_59_528" x1="94.6466" y1="413.171" x2="521.441" y2="686.739" gradientUnits="userSpaceOnUse">
<stop stop-color="#790084"/>
<stop offset="0.785248" stop-color="#7248F9"/>
</linearGradient>
</defs>
</svg>
